<?xml version="1.0" encoding="UTF-8" standalone="no"?>
<!-- Created with Inkscape (http://www.inkscape.org/) -->

<svg
   version="1.1"
   id="svg2"
   width="800"
   height="200"
   viewBox="0 0 800 200"
   sodipodi:docname="progressbar_banner.svg"
   xml:space="preserve"
   inkscape:version="1.2.2 (732a01da63, 2022-12-09)"
   inkscape:export-filename="progressbar_banner.png"
   inkscape:export-xdpi="96"
   inkscape:export-ydpi="96"
   xmlns:inkscape="http://www.inkscape.org/namespaces/inkscape"
   xmlns:sodipodi="http://sodipodi.sourceforge.net/DTD/sodipodi-0.dtd"
   xmlns="http://www.w3.org/2000/svg"
   xmlns:svg="http://www.w3.org/2000/svg"><defs
     id="defs6" /><sodipodi:namedview
     id="namedview4"
     pagecolor="#505050"
     bordercolor="#ffffff"
     borderopacity="1"
     inkscape:showpageshadow="0"
     inkscape:pageopacity="0"
     inkscape:pagecheckerboard="1"
     inkscape:deskcolor="#505050"
     showgrid="false"
     inkscape:zoom="0.59"
     inkscape:cx="796.61017"
     inkscape:cy="105.9322"
     inkscape:window-width="1152"
     inkscape:window-height="842"
     inkscape:window-x="-8"
     inkscape:window-y="-8"
     inkscape:window-maximized="1"
     inkscape:current-layer="svg2" /><path
     style="fill:#f2f2f2;fill-opacity:1;stroke-linecap:round;stroke-linejoin:round"
     d="M 0,86.290997 C 1.9412037,52.213344 23.377377,12.522094 55.130359,0 85.056077,-11.801495 116.44908,23.375567 148.61227,23.969721 186.21787,24.664413 223.30735,-12.237211 258.87299,0 407.65522,51.1921 556.44487,-11.697745 672.35068,0 798.04312,12.685456 782.38721,41.41894 800,99.339274 806.59179,121.01663 793.93804,181.04573 774.222,192.20984 727.30785,218.77474 668.87899,161.96347 616.02184,172.58199 502.23593,195.44054 369.08889,194.44079 258.87299,200 214.26852,202.24982 174.04461,163.21469 129.4365,165.39108 102.16262,166.72175 78.105418,204.24905 52.733387,194.15474 15.546989,179.36006 -2.276093,126.2476 0,86.290997 Z"
     id="path808"
     sodipodi:nodetypes="ssssssssssss" /></svg>
