<?xml version="1.0" encoding="UTF-8" standalone="no"?>
<!-- Created with Inkscape (http://www.inkscape.org/) -->

<svg
   width="210mm"
   height="297mm"
   viewBox="0 0 210 297"
   version="1.1"
   id="svg5"
   inkscape:version="1.2.2 (732a01da63, 2022-12-09)"
   sodipodi:docname="eyes.svg"
   xmlns:inkscape="http://www.inkscape.org/namespaces/inkscape"
   xmlns:sodipodi="http://sodipodi.sourceforge.net/DTD/sodipodi-0.dtd"
   xmlns="http://www.w3.org/2000/svg"
   xmlns:svg="http://www.w3.org/2000/svg">
  <sodipodi:namedview
     id="namedview7"
     pagecolor="#505050"
     bordercolor="#ffffff"
     borderopacity="1"
     inkscape:showpageshadow="0"
     inkscape:pageopacity="0"
     inkscape:pagecheckerboard="1"
     inkscape:deskcolor="#505050"
     inkscape:document-units="mm"
     showgrid="false"
     inkscape:zoom="2.3786088"
     inkscape:cx="180.98815"
     inkscape:cy="1.0510345"
     inkscape:window-width="1152"
     inkscape:window-height="842"
     inkscape:window-x="-8"
     inkscape:window-y="-8"
     inkscape:window-maximized="1"
     inkscape:current-layer="layer1" />
  <defs
     id="defs2" />
  <g
     inkscape:label="Layer 1"
     inkscape:groupmode="layer"
     id="layer1">
    <g
       id="g9960"
       transform="scale(0.26458321)"
       inkscape:export-filename="g9960.png"
       inkscape:export-xdpi="96"
       inkscape:export-ydpi="96"
       style="stroke:#7c696e;stroke-opacity:1"
       inkscape:label="show_eye">
      <path
         id="path788"
         style="fill:none;fill-opacity:1;stroke:#7c696e;stroke-width:2.12336;stroke-linecap:round;stroke-linejoin:round;stroke-opacity:1"
         d="M 43.11026,1.06168 A 48.93832,48.93832 0 0 0 1.061663,25.00027 48.93832,48.93832 0 0 0 43.11026,48.938344 48.93832,48.93832 0 0 0 85.169191,24.983734 48.93832,48.93832 0 0 0 43.11026,1.06168 Z" />
      <circle
         style="fill:none;fill-opacity:1;stroke:#7c696e;stroke-width:1.90156;stroke-linecap:round;stroke-linejoin:round;stroke-opacity:1"
         id="path903"
         cx="43.115425"
         cy="25.000013"
         r="19.759888" />
    </g>
    <g
       id="g930"
       inkscape:export-filename="close_eye.png"
       inkscape:export-xdpi="96"
       inkscape:export-ydpi="96">
      <path
         id="path845"
         style="fill:none;fill-opacity:1;stroke:#ffffff;stroke-width:0.562;stroke-linecap:round;stroke-linejoin:round;stroke-dasharray:none;stroke-opacity:1"
         d="M 53.662734,6.5813406 A 12.948258,12.948258 0 0 0 42.551908,0.2809027 v 0 a 12.948258,12.948258 0 0 0 -11.108104,6.304807" />
      <path
         id="path909"
         style="fill:none;fill-opacity:1;stroke:#7c696e;stroke-width:0.562;stroke-linecap:round;stroke-linejoin:round;stroke-dasharray:none;stroke-opacity:1"
         d="m 31.443804,6.5857097 a 12.948258,12.948258 0 0 0 -0.01725,0.028942 12.948258,12.948258 0 0 0 11.125353,6.3336123 12.948258,12.948258 0 0 0 11.128087,-6.3379875 12.948258,12.948258 0 0 0 -0.01726,-0.028936" />
    </g>
  </g>
</svg>
