<?xml version="1.0" encoding="UTF-8" standalone="no"?>
<!-- Created with Inkscape (http://www.inkscape.org/) -->

<svg
   width="210mm"
   height="297mm"
   viewBox="0 0 210 297"
   version="1.1"
   id="svg5"
   inkscape:version="1.2.2 (732a01da63, 2022-12-09)"
   sodipodi:docname="icons.svg"
   xmlns:inkscape="http://www.inkscape.org/namespaces/inkscape"
   xmlns:sodipodi="http://sodipodi.sourceforge.net/DTD/sodipodi-0.dtd"
   xmlns="http://www.w3.org/2000/svg"
   xmlns:svg="http://www.w3.org/2000/svg">
  <sodipodi:namedview
     id="namedview7"
     pagecolor="#505050"
     bordercolor="#ffffff"
     borderopacity="1"
     inkscape:showpageshadow="0"
     inkscape:pageopacity="0"
     inkscape:pagecheckerboard="1"
     inkscape:deskcolor="#505050"
     inkscape:document-units="mm"
     showgrid="false"
     inkscape:zoom="3.3638608"
     inkscape:cx="287.76458"
     inkscape:cy="14.120679"
     inkscape:window-width="1152"
     inkscape:window-height="842"
     inkscape:window-x="-8"
     inkscape:window-y="-8"
     inkscape:window-maximized="1"
     inkscape:current-layer="layer1" />
  <defs
     id="defs2" />
  <g
     inkscape:label="Layer 1"
     inkscape:groupmode="layer"
     id="layer1">
    <g
       id="g1008"
       transform="matrix(0.74284839,0,0,0.74284839,-15.141191,-6.5014699)"
       inkscape:export-filename="..\search.png"
       inkscape:export-xdpi="96"
       inkscape:export-ydpi="96">
      <ellipse
         style="fill:none;stroke:#ffffff;stroke-width:1.32292;stroke-linecap:round;stroke-linejoin:round;stroke-dasharray:none"
         id="path788"
         cx="27.570339"
         cy="15.939809"
         rx="6.5262666"
         ry="6.5262671" />
      <path
         style="fill:none;stroke:#ffffff;stroke-width:1.32292;stroke-linecap:round;stroke-linejoin:round;stroke-dasharray:none"
         d="m 37.529856,27.242689 -5.54358,-6.221156"
         id="path1004" />
    </g>
    <g
       id="g934"
       inkscape:export-filename="menu.png"
       inkscape:export-xdpi="96"
       inkscape:export-ydpi="96">
      <ellipse
         style="fill:none;stroke:#000000;stroke-width:1.06385;stroke-linecap:round;stroke-linejoin:round"
         id="path898"
         cx="23.425169"
         cy="7.9320021"
         rx="6.0826602"
         ry="6.0826592" />
      <g
         id="g909"
         transform="translate(-36.810381,51.917617)">
        <ellipse
           style="fill:#000000;stroke:#000000;stroke-width:0.106385;stroke-linecap:round;stroke-linejoin:round"
           id="ellipse900"
           cx="60.23555"
           cy="-46.817184"
           rx="0.60826588"
           ry="0.60826582" />
        <ellipse
           style="fill:#000000;stroke:#000000;stroke-width:0.106385;stroke-linecap:round;stroke-linejoin:round"
           id="ellipse902"
           cx="60.23555"
           cy="-43.985615"
           rx="0.60826588"
           ry="0.60826582" />
        <ellipse
           style="fill:#000000;stroke:#000000;stroke-width:0.106385;stroke-linecap:round;stroke-linejoin:round"
           id="ellipse904"
           cx="60.23555"
           cy="-41.154045"
           rx="0.60826588"
           ry="0.60826582" />
      </g>
    </g>
    <g
       id="g923"
       transform="translate(-8.6520127,64.811439)"
       inkscape:export-filename="profile.png"
       inkscape:export-xdpi="96"
       inkscape:export-ydpi="96">
      <ellipse
         style="fill:none;stroke:#000000;stroke-width:1.06385;stroke-linecap:round;stroke-linejoin:round"
         id="ellipse911"
         cx="49.820915"
         cy="-56.879436"
         rx="6.0826602"
         ry="6.0826592" />
      <ellipse
         style="fill:none;stroke:#000000;stroke-width:0.79375;stroke-linecap:round;stroke-linejoin:round;stroke-dasharray:none"
         id="ellipse913"
         cx="49.820915"
         cy="-58.005203"
         rx="3.0413291"
         ry="3.0413289" />
      <path
         id="ellipse915"
         style="fill:none;stroke:#000000;stroke-width:0.85108;stroke-linecap:round;stroke-linejoin:round"
         d="m 49.820732,-54.272139 a 4.8661265,4.8661265 0 0 0 -3.942395,2.018998 6.0826602,6.0826592 0 0 0 3.942395,1.456242 6.0826602,6.0826592 0 0 0 3.944978,-1.458309 4.8661265,4.8661265 0 0 0 -3.944978,-2.016931 z" />
    </g>
    <g
       id="g1249"
       inkscape:export-filename="logout.png"
       inkscape:export-xdpi="96"
       inkscape:export-ydpi="96">
      <ellipse
         style="fill:none;stroke:#000000;stroke-width:1.06385;stroke-linecap:round;stroke-linejoin:round"
         id="ellipse927"
         cx="58.057846"
         cy="6.9753447"
         rx="6.0826602"
         ry="6.0826592" />
      <g
         id="g1180"
         transform="rotate(-90,87.984223,-22.230865)">
        <path
           id="ellipse920"
           style="fill:none;stroke:#000000;stroke-width:0.85108;stroke-linecap:round;stroke-linejoin:round"
           d="m 59.898638,-56.890976 c -0.535313,-0.12794 -1.100579,-0.166687 -1.675561,-0.101901 -2.453257,0.276418 -4.310584,2.346179 -4.321055,4.814936 -0.01047,2.468759 1.829203,4.55433 4.280027,4.851548 2.450825,0.297217 4.736123,-1.287997 5.316063,-3.687694 -0.259204,-0.06264 -0.449034,-0.107976 -0.682873,-0.163969 a 4.1371613,4.1371608 13.586297 0 1 -4.985515,3.021686 4.1371613,4.1371608 13.586297 0 1 -3.049572,-4.993315 4.1371613,4.1371608 13.586297 0 1 4.993195,-3.04907 4.1371613,4.1371608 13.586297 0 1 3.057256,3.08286 c 0.218677,-0.04656 0.435938,-0.09265 0.677069,-0.144192 -0.428416,-1.840968 -1.860345,-3.212951 -3.609034,-3.630889 z" />
        <path
           style="fill:#000000;stroke:#000000;stroke-width:0.79375;stroke-linecap:round;stroke-linejoin:round"
           d="m 58.816588,-52.155938 h 4.866126"
           id="path922" />
      </g>
    </g>
    <g
       id="g1243"
       transform="translate(65.40588,50.625613)"
       inkscape:export-filename="create.png"
       inkscape:export-xdpi="96"
       inkscape:export-ydpi="96">
      <ellipse
         style="fill:none;stroke:#000000;stroke-width:1.06385;stroke-linecap:round;stroke-linejoin:round"
         id="ellipse925"
         cx="8.7954016"
         cy="-43.650269"
         rx="6.0826602"
         ry="6.0826592" />
      <path
         style="fill:none;stroke:#000000;stroke-width:0.79375;stroke-linecap:round;stroke-linejoin:round"
         d="m 8.7954016,-39.756863 v -7.786812"
         id="path1236" />
      <path
         style="fill:none;stroke:#000000;stroke-width:0.79375;stroke-linecap:round;stroke-linejoin:round"
         d="M 4.9019956,-43.650269 H 12.688808"
         id="path1238" />
    </g>
  </g>
</svg>
