<?xml version="1.0" encoding="UTF-8" standalone="no"?>
<!-- Created with Inkscape (http://www.inkscape.org/) -->

<svg
   width="400"
   height="400"
   viewBox="0 0 105.83333 105.83333"
   version="1.1"
   id="svg5"
   xml:space="preserve"
   inkscape:version="1.2.2 (732a01da63, 2022-12-09)"
   sodipodi:docname="login.svg"
   xmlns:inkscape="http://www.inkscape.org/namespaces/inkscape"
   xmlns:sodipodi="http://sodipodi.sourceforge.net/DTD/sodipodi-0.dtd"
   xmlns:xlink="http://www.w3.org/1999/xlink"
   xmlns="http://www.w3.org/2000/svg"
   xmlns:svg="http://www.w3.org/2000/svg"><sodipodi:namedview
     id="namedview7"
     pagecolor="#505050"
     bordercolor="#ffffff"
     borderopacity="1"
     inkscape:showpageshadow="0"
     inkscape:pageopacity="0"
     inkscape:pagecheckerboard="1"
     inkscape:deskcolor="#505050"
     inkscape:document-units="mm"
     showgrid="false"
     inkscape:zoom="0.08"
     inkscape:cx="287.5"
     inkscape:cy="1656.25"
     inkscape:window-width="1152"
     inkscape:window-height="842"
     inkscape:window-x="-8"
     inkscape:window-y="-8"
     inkscape:window-maximized="1"
     inkscape:current-layer="layer1" /><defs
     id="defs2"><linearGradient
       inkscape:collect="always"
       id="linearGradient14108"><stop
         style="stop-color:#f0999d;stop-opacity:1;"
         offset="0"
         id="stop14104" /><stop
         style="stop-color:#958c8f;stop-opacity:1;"
         offset="1"
         id="stop14106" /></linearGradient><linearGradient
       inkscape:collect="always"
       xlink:href="#linearGradient14108"
       id="linearGradient14110"
       x1="80.357887"
       y1="72.561462"
       x2="146.27634"
       y2="68.527084"
       gradientUnits="userSpaceOnUse"
       gradientTransform="translate(-61.015416,-15.640118)" /><rect
       x="154.79098"
       y="1506.25"
       width="92.084024"
       height="159.375"
       id="rect9842" /><linearGradient
       inkscape:collect="always"
       id="linearGradient1607"><stop
         style="stop-color:#f0989d;stop-opacity:1"
         offset="0"
         id="stop1599" /><stop
         style="stop-color:#ef8c92;stop-opacity:1;"
         offset="0.27454296"
         id="stop1601" /><stop
         style="stop-color:#7c696e;stop-opacity:1;"
         offset="0.59253961"
         id="stop1603" /><stop
         style="stop-color:#0c0b0c;stop-opacity:1;"
         offset="1"
         id="stop1605" /></linearGradient><linearGradient
       inkscape:collect="always"
       id="linearGradient6455"><stop
         style="stop-color:#f0989d;stop-opacity:1"
         offset="0"
         id="stop6451" /><stop
         style="stop-color:#f0989e;stop-opacity:1"
         offset="0.27454296"
         id="stop6523" /><stop
         style="stop-color:#ec8589;stop-opacity:1;"
         offset="0.59253961"
         id="stop6525" /><stop
         style="stop-color:#4b0c11;stop-opacity:1;"
         offset="1"
         id="stop6453" /></linearGradient><rect
       x="813.35114"
       y="632.60645"
       width="423.32309"
       height="318.68143"
       id="rect472" /><rect
       x="323.43787"
       y="38.051514"
       width="95.128784"
       height="111.77632"
       id="rect410" /><clipPath
       clipPathUnits="userSpaceOnUse"
       id="clipPath1550"><circle
         style="fill:#e9afc6;stroke-width:0.281826;stroke-linecap:round;stroke-linejoin:round"
         id="circle1552"
         cx="318.29755"
         cy="183.48138"
         r="50" /></clipPath><clipPath
       clipPathUnits="userSpaceOnUse"
       id="clipPath1554"><circle
         style="fill:#e9afc6;stroke-width:0.281826;stroke-linecap:round;stroke-linejoin:round"
         id="circle1556"
         cx="318.29755"
         cy="183.48138"
         r="50" /></clipPath><clipPath
       clipPathUnits="userSpaceOnUse"
       id="clipPath1558"><circle
         style="fill:#e9afc6;stroke-width:0.281826;stroke-linecap:round;stroke-linejoin:round"
         id="circle1560"
         cx="318.29755"
         cy="183.48138"
         r="50" /></clipPath><clipPath
       clipPathUnits="userSpaceOnUse"
       id="clipPath1562"><circle
         style="fill:#e9afc6;stroke-width:0.281826;stroke-linecap:round;stroke-linejoin:round"
         id="circle1564"
         cx="318.29755"
         cy="183.48138"
         r="50" /></clipPath><clipPath
       clipPathUnits="userSpaceOnUse"
       id="clipPath1566"><circle
         style="fill:#e9afc6;stroke-width:0.281826;stroke-linecap:round;stroke-linejoin:round"
         id="circle1568"
         cx="318.29755"
         cy="183.48138"
         r="50" /></clipPath><clipPath
       clipPathUnits="userSpaceOnUse"
       id="clipPath45214"><circle
         style="fill:url(#radialGradient45218);fill-opacity:1;stroke-width:0.264583;stroke-linecap:round;stroke-linejoin:round"
         id="circle45216"
         cx="250.39767"
         cy="116.44553"
         r="35.079979" /></clipPath><radialGradient
       inkscape:collect="always"
       xlink:href="#linearGradient6455"
       id="radialGradient45218"
       gradientUnits="userSpaceOnUse"
       gradientTransform="matrix(1.4264496,0.94087532,-0.86722056,1.3147823,212.30635,-75.456013)"
       cx="65.13121"
       cy="86.4263"
       fx="65.13121"
       fy="86.4263"
       r="35.079979" /><clipPath
       clipPathUnits="userSpaceOnUse"
       id="clipPath45964"><circle
         style="fill:url(#radialGradient45968);fill-opacity:1;stroke-width:0.264583;stroke-linecap:round;stroke-linejoin:round"
         id="circle45966"
         cx="243.04291"
         cy="148.27898"
         r="35.079979" /></clipPath><radialGradient
       inkscape:collect="always"
       xlink:href="#linearGradient6455"
       id="radialGradient45968"
       gradientUnits="userSpaceOnUse"
       gradientTransform="matrix(1.4264496,0.94087532,-0.86722056,1.3147823,204.95159,-43.622574)"
       cx="65.13121"
       cy="86.4263"
       fx="65.13121"
       fy="86.4263"
       r="35.079979" /><clipPath
       clipPathUnits="userSpaceOnUse"
       id="clipPath46712"><circle
         style="fill:url(#radialGradient46716);fill-opacity:1;stroke-width:0.264583;stroke-linecap:round;stroke-linejoin:round"
         id="circle46714"
         cx="202.35204"
         cy="180.99931"
         r="35.079979" /></clipPath><radialGradient
       inkscape:collect="always"
       xlink:href="#linearGradient6455"
       id="radialGradient46716"
       gradientUnits="userSpaceOnUse"
       gradientTransform="matrix(1.4264496,0.94087532,-0.86722056,1.3147823,164.26072,-10.90223)"
       cx="65.13121"
       cy="86.4263"
       fx="65.13121"
       fy="86.4263"
       r="35.079979" /><radialGradient
       inkscape:collect="always"
       xlink:href="#linearGradient1607"
       id="radialGradient439"
       gradientUnits="userSpaceOnUse"
       gradientTransform="matrix(1.5871515,1.35727,-1.1712692,1.3696474,-9.7386493,-205.64288)"
       cx="65.13121"
       cy="86.4263"
       fx="65.13121"
       fy="86.4263"
       r="35.079979" /><radialGradient
       inkscape:collect="always"
       xlink:href="#linearGradient1607"
       id="radialGradient3534"
       gradientUnits="userSpaceOnUse"
       gradientTransform="matrix(1.5871515,1.35727,-1.1712692,1.3696474,-119.15783,-320.84596)"
       cx="65.13121"
       cy="86.4263"
       fx="65.13121"
       fy="86.4263"
       r="35.079979" /></defs><g
     inkscape:label="Layer 1"
     inkscape:groupmode="layer"
     id="layer1"><path
       id="circle3532"
       style="fill:url(#radialGradient3534);fill-opacity:1;stroke-width:0.264583;stroke-linecap:round;stroke-linejoin:round"
       d="M -96.877808 -62.002417 A 35.079979 35.079979 0 0 0 -61.797778 -97.082446 A 35.079979 35.079979 0 0 0 -62.930526 -105.83333 L -105.83333 -105.83333 L -105.83333 -63.165137 A 35.079979 35.079979 0 0 0 -96.877808 -62.002417 z "
       transform="scale(-1)" /><path
       id="circle437"
       style="fill:url(#radialGradient439);fill-opacity:1;stroke-width:0.264583;stroke-linecap:round;stroke-linejoin:round"
       d="M 0 0 L 0 50.87183 A 35.079979 35.079979 0 0 0 12.54187 53.200887 A 35.079979 35.079979 0 0 0 47.621383 18.120858 A 35.079979 35.079979 0 0 0 42.577763 0 L 0 0 z " /><path
       id="path3528"
       style="fill:#f2f2f2;fill-opacity:1;stroke-width:0.327057;stroke-linecap:round;stroke-linejoin:round"
       d="m 71.866432,43.393011 c 2.483525,0.348927 4.897893,4.714648 4.898135,9.434539 -0.0016,4.767506 -2.249298,9.452663 -4.894534,9.555212 5.39913,-0.917321 12.283764,-4.681533 12.500044,-9.555445 -2.330762,-5.048348 -7.71192,-9.232355 -12.503645,-9.434306 z m -0.364302,-2.2e-4 c -6.361478,0.255498 -11.131384,4.778685 -11.132051,9.434474 3.19e-4,4.655974 4.566345,9.27523 10.928077,9.530738 -2.051834,-0.516601 -4.212179,-4.852669 -4.266578,-9.530738 -0.751514,-3.024239 1.46656,-8.37665 4.470552,-9.434474 z"
       sodipodi:nodetypes="cccccccccc" /><path
       id="path3285"
       style="fill:#f2f2f2;fill-opacity:1;stroke-width:0.305715;stroke-linecap:round;stroke-linejoin:round"
       d="m 32.218705,32.204236 c -2.160406,0.522482 -3.963222,0.952567 -4.226099,0.99012 -0.374644,0.05352 -1.120335,-0.03628 -1.962154,-0.03876 0.309709,0.38201 0.666093,0.776702 1.076937,1.180807 l -0.107487,-0.07286 c 0,0 -2.696545,3.970387 -5.505607,5.13147 0,0 4.007158,8.729501 -0.56224,15.694649 0,0 8.518353,0.158931 10.954887,4.767151 l 3.389457,-2.472718 3.601848,-3.459737 0.05374,-15.413529 c 0,0 -0.199619,-2.243714 -6.713285,-6.306592 z m -4.329452,2.642733 c 0.4554,0.374354 1.734476,1.477625 2.292366,1.857768 5.985394,4.078557 4.51032,3.190502 4.51032,3.190502 0,0 1.690183,7.44132 -0.05736,16.468763 l 0.02687,0.01912 c -1.538204,-1.069482 -5.012653,-3.175826 -8.020698,-3.332096 0,0 -2.970352,-16.453489 1.248503,-18.204057 z"
       sodipodi:nodetypes="sscccccccccssccccccc" /><path
       id="path3135"
       style="fill:#f2f2f2;fill-opacity:1;stroke-width:0.373652;stroke-linecap:round;stroke-linejoin:round"
       d="m 29.67531,20.285366 c -0.895039,-0.0021 -2.052339,-0.148128 -3.800283,0.385967 l -3.637381,5.760497 c 0,0 -0.0675,2.655705 3.907804,6.565796 l -0.13134,-0.08932 c 0,0 -3.347691,4.077293 -6.780992,5.496397 0,0 4.897621,10.669519 -0.68721,19.1825 0,0 10.411438,0.194561 13.389437,5.826845 l 4.142882,-4.790851 4.402297,-2.460013 0.06538,-18.839157 c 0,0 -0.03717,-3.369164 -9.258005,-8.351706 -8.16983,-4.414623 -3.949187,-11.370671 -0.932099,-4.107816 0.353199,0 3.38467,-4.5684 -0.680502,-4.579083 z m -2.18422,13.192727 h 5.36e-4 c 0.5566,0.457542 1.172134,0.921244 1.854011,1.385864 7.315501,4.984916 5.891705,4.531455 5.891705,4.531455 0,0 1.876477,7.389236 -0.259415,18.422806 l 0.03265,0.02341 c -1.880031,-1.30715 -5.936814,-3.818374 -9.613322,-4.00937 0,0 -3.062611,-18.2146 2.093784,-20.354188 z"
       sodipodi:nodetypes="cccccccccccscccccccccccc" /><path
       id="path3196"
       style="fill:#f2f2f2;fill-opacity:1;stroke-width:0.381566;stroke-linecap:round;stroke-linejoin:round"
       d="m 71.877947,43.393599 c 3.054013,0.198323 5.362771,3.76964 5.363053,9.276184 3.86119,2.364507 2.472022,8.381187 -5.369268,9.707705 7.695312,0.627444 13.817719,-3.12088 13.876953,-9.781093 -1.041418,-6.894657 -7.88913,-9.704416 -13.870738,-9.202796 z m -0.372254,-0.002 c -6.252848,-0.211588 -12.879253,3.853916 -12.880029,9.57027 3.71e-4,5.431969 5.462577,9.094596 12.884597,9.39269 -3.04697,-0.210804 -5.621918,-4.190692 -5.62442,-9.685016 -2.904744,-2.077 1.419839,-8.065938 5.619852,-9.277944 z"
       sodipodi:nodetypes="cccccccccc" /><path
       id="path3198"
       style="fill:#f2f2f2;fill-opacity:1;stroke-width:0.368794;stroke-linecap:round;stroke-linejoin:round"
       d="m 51.199753,43.058528 -5.687212,2.153413 0.09357,0.818589 c 0.233929,-0.07308 1.472297,0.03092 1.889387,0.182624 0.422524,0.153685 0.733999,0.42903 0.733999,0.743951 v 12.395622 c 0,0.792065 -0.211193,1.32006 -0.633632,1.584079 -0.396032,0.264018 -1.0827,0.396427 -2.059573,0.396427 v 1.417084 H 53.9719 l -0.02584,-1.597951 c -1.082491,0 -1.679082,0.04846 -2.048718,-0.21556 -0.369616,-0.264019 -0.606235,-0.55947 -0.606235,-1.351535 z"
       sodipodi:nodetypes="cccssscccccssc" /><path
       id="path3207"
       style="fill:#f2f2f2;fill-opacity:1;stroke-width:0.431108;stroke-linecap:round;stroke-linejoin:round"
       d="m 49.805605,33.360319 c -0.833315,0 -1.466171,0.24688 -1.898263,0.7407 -0.401223,0.43208 -0.601743,0.98787 -0.601743,1.66687 0,0.61727 0.20052,1.14174 0.601743,1.57382 0.432092,0.49381 1.064948,0.74069 1.898263,0.74069 0.771565,0 1.388761,-0.24688 1.851734,-0.74069 0.432068,-0.43208 0.64826,-0.95655 0.64826,-1.57382 0,-0.679 -0.216192,-1.23479 -0.64826,-1.66687 -0.462973,-0.49382 -1.080169,-0.7407 -1.851734,-0.7407 z" /><path
       id="path3268"
       style="fill:#f2f2f2;fill-opacity:1;stroke-width:0.39902;stroke-linecap:round;stroke-linejoin:round"
       d="m 66.026754,62.353145 c -8.592237,2.208103 -11.977962,11.831572 7.3974,14.943147 14.473447,2.324355 3.415274,8.308285 3.425022,8.311628 C 86.995398,85.729526 94.522241,72.43302 76.731391,69.294643 60.964202,66.991567 66.026754,62.353145 66.026754,62.353145 Z"
       sodipodi:nodetypes="csccc" /><path
       id="path2412"
       style="fill:url(#linearGradient14110);fill-opacity:1;stroke-width:0.354311;stroke-linecap:round;stroke-linejoin:round"
       d="m 29.601792,20.423315 c -0.848709,-0.0023 -2.044105,0.20255 -3.701583,0.709 l -3.008085,4.972306 c 0,0 -0.162015,3.057261 3.607532,6.764962 l -0.124541,-0.08475 c 0,0 -3.125409,4.601273 -6.381005,5.946924 0,0 4.644114,10.117244 -0.65164,18.18959 0,0 9.872525,0.18448 12.696382,5.52524 l 3.928439,-4.54287 4.17442,-2.33268 0.062,-17.864024 c 0,0 -0.24585,-2.824205 -8.778785,-7.919413 -8.532941,-5.095208 -4.665138,-13.198125 -0.981852,-5.463232 0,0 2.836427,-3.890922 -0.841292,-3.901053 z m 20.244759,13.296862 c -0.68487,0 -1.20499,0.202903 -1.56011,0.608748 -0.32975,0.355113 -0.49455,0.811905 -0.49455,1.369942 0,0.507306 0.1648,0.938346 0.49455,1.293461 0.35512,0.405845 0.87524,0.608749 1.56011,0.608749 0.63412,0 1.14137,-0.202904 1.52187,-0.608749 0.3551,-0.355115 0.53278,-0.786155 0.53278,-1.293461 0,-0.558037 -0.17768,-1.014829 -0.53278,-1.369942 -0.3805,-0.405845 -0.88775,-0.608748 -1.52187,-0.608748 z m -22.021912,0.340031 h 5.17e-4 c 0.527789,0.433854 1.111458,0.873552 1.758032,1.314131 6.936853,4.726885 5.586743,4.296896 5.586743,4.296896 0,0 1.77936,7.006743 -0.24598,17.469212 l 0.0305,0.0222 c -1.782713,-1.23949 -5.62952,-3.620729 -9.115727,-3.801839 0,0 -2.904176,-17.272628 1.985925,-19.30063 z m 44.436042,9.327079 a 13,9.5 0 0 0 -0.32142,0.0072 5.2722654,9.5 0 0 1 5.08237,9.492961 5.2722654,9.5 0 0 1 -5.15886,9.491929 13,9.5 0 0 0 0.39791,0.008 13,9.5 0 0 0 13.00024,-9.500196 13,9.5 0 0 0 -13.00024,-9.499678 z m -0.71313,0.01499 a 13,9.5 0 0 0 -12.28659,9.484692 13,9.5 0 0 0 12.28659,9.485208 5.2722654,9.5 0 0 1 -5.06998,-9.485208 5.2722654,9.5 0 0 1 5.06998,-9.484692 z m -20.59771,0.134359 -5.06067,1.788004 0.1142,0.571025 c 1.01462,0 1.72529,0.151919 2.13114,0.456303 0.32974,0.279019 0.49454,0.710576 0.49454,1.293978 v 11.908831 c 0,0.76096 -0.2029,1.26822 -0.60875,1.52187 -0.38048,0.25365 -1.04018,0.38085 -1.97869,0.38085 v 0.98909 h 7.53339 v -0.98909 c -1.03998,0 -1.73726,-0.1272 -2.09238,-0.38085 -0.3551,-0.25365 -0.53278,-0.76091 -0.53278,-1.52187 z m 14.61099,19.221041 c -7.62949,3.61811 -9.75323,10.30355 7.3148,13.52838 17.06805,3.22483 4.87671,9.12398 4.87671,9.12398 9.37226,-1.4439 15.15372,-13.99964 -3.77548,-16.04552 -14.00051,-2.04502 -8.41603,-6.60684 -8.41603,-6.60684 z" /></g></svg>
