<?xml version="1.0" encoding="UTF-8" standalone="no"?>
<!-- Created with Inkscape (http://www.inkscape.org/) -->

<svg
   width="67.148003mm"
   height="64.987mm"
   viewBox="0 0 67.148003 64.987"
   version="1.1"
   id="svg5"
   xml:space="preserve"
   inkscape:version="1.2.2 (732a01da63, 2022-12-09)"
   sodipodi:docname="logo.svg"
   xmlns:inkscape="http://www.inkscape.org/namespaces/inkscape"
   xmlns:sodipodi="http://sodipodi.sourceforge.net/DTD/sodipodi-0.dtd"
   xmlns:xlink="http://www.w3.org/1999/xlink"
   xmlns="http://www.w3.org/2000/svg"
   xmlns:svg="http://www.w3.org/2000/svg"><sodipodi:namedview
     id="namedview7"
     pagecolor="#505050"
     bordercolor="#ffffff"
     borderopacity="1"
     inkscape:showpageshadow="0"
     inkscape:pageopacity="0"
     inkscape:pagecheckerboard="1"
     inkscape:deskcolor="#505050"
     inkscape:document-units="mm"
     showgrid="false"
     inkscape:zoom="0.5946522"
     inkscape:cx="415.36885"
     inkscape:cy="313.62871"
     inkscape:window-width="1152"
     inkscape:window-height="842"
     inkscape:window-x="-8"
     inkscape:window-y="-8"
     inkscape:window-maximized="1"
     inkscape:current-layer="layer1" /><defs
     id="defs2"><linearGradient
       inkscape:collect="always"
       id="linearGradient14108"><stop
         style="stop-color:#f0999d;stop-opacity:1;"
         offset="0"
         id="stop14104" /><stop
         style="stop-color:#958c8f;stop-opacity:1;"
         offset="1"
         id="stop14106" /></linearGradient><linearGradient
       inkscape:collect="always"
       xlink:href="#linearGradient14108"
       id="linearGradient14110"
       x1="80.357887"
       y1="72.561462"
       x2="146.27634"
       y2="68.527084"
       gradientUnits="userSpaceOnUse"
       gradientTransform="translate(-80.357886,-36.063413)" /></defs><g
     inkscape:label="Layer 1"
     inkscape:groupmode="layer"
     id="layer1"><path
       id="path2412"
       style="opacity:1;fill:url(#linearGradient14110);fill-opacity:1;stroke-width:0.354311;stroke-linecap:round;stroke-linejoin:round"
       d="M 10.259322,1.9136658e-5 C 9.410613,-0.00228086 8.215217,0.20256914 6.557739,0.70901914 L 3.549654,5.6813261 c 0,0 -0.162015,3.057261 3.607532,6.7649619 l -0.124541,-0.08475 c 0,0 -3.125409,4.601273 -6.381005,5.946924 0,0 4.644114,10.117244 -0.65164,18.18959 0,0 9.872525,0.18448 12.696382,5.52524 l 3.928439,-4.54287 4.17442,-2.33268 0.062,-17.864024 c 0,0 -0.24585,-2.824205 -8.778785,-7.9194129 -8.532941,-5.095208 -4.665138,-13.198125 -0.981852,-5.463232 0,0 2.836427,-3.89092296 -0.841292,-3.901053963342 z M 30.504081,13.296882 c -0.68487,0 -1.20499,0.202903 -1.56011,0.608748 -0.32975,0.355113 -0.49455,0.811905 -0.49455,1.369942 0,0.507306 0.1648,0.938346 0.49455,1.293461 0.35512,0.405845 0.87524,0.608749 1.56011,0.608749 0.63412,0 1.14137,-0.202904 1.52187,-0.608749 0.3551,-0.355115 0.53278,-0.786155 0.53278,-1.293461 0,-0.558037 -0.17768,-1.014829 -0.53278,-1.369942 -0.3805,-0.405845 -0.88775,-0.608748 -1.52187,-0.608748 z M 8.482169,13.636913 h 5.17e-4 c 0.527789,0.433854 1.111458,0.873552 1.758032,1.314131 6.936853,4.726885 5.586743,4.296896 5.586743,4.296896 0,0 1.77936,7.006743 -0.24598,17.469212 l 0.0305,0.0222 c -1.782713,-1.23949 -5.62952,-3.620729 -9.115727,-3.801839 0,0 -2.904176,-17.272628 1.985925,-19.30063 z m 44.436042,9.327079 a 13,9.5 0 0 0 -0.32142,0.0072 5.2722654,9.5 0 0 1 5.08237,9.492961 5.2722654,9.5 0 0 1 -5.15886,9.491929 13,9.5 0 0 0 0.39791,0.008 13,9.5 0 0 0 13.00024,-9.500196 13,9.5 0 0 0 -13.00024,-9.499678 z m -0.71313,0.01499 a 13,9.5 0 0 0 -12.28659,9.484692 13,9.5 0 0 0 12.28659,9.485208 5.2722654,9.5 0 0 1 -5.06998,-9.485208 5.2722654,9.5 0 0 1 5.06998,-9.484692 z m -20.59771,0.134359 -5.06067,1.788004 0.1142,0.571025 c 1.01462,0 1.72529,0.151919 2.13114,0.456303 0.32974,0.279019 0.49454,0.710576 0.49454,1.293978 v 11.908831 c 0,0.76096 -0.2029,1.26822 -0.60875,1.52187 -0.38048,0.25365 -1.04018,0.38085 -1.97869,0.38085 v 0.98909 h 7.53339 v -0.98909 c -1.03998,0 -1.73726,-0.1272 -2.09238,-0.38085 -0.3551,-0.25365 -0.53278,-0.76091 -0.53278,-1.52187 z m 14.61099,19.221041 c -7.62949,3.61811 -9.75323,10.30355 7.3148,13.52838 17.06805,3.22483 4.87671,9.12398 4.87671,9.12398 9.37226,-1.4439 15.15372,-13.99964 -3.77548,-16.04552 -14.00051,-2.04502 -8.41603,-6.60684 -8.41603,-6.60684 z" /></g></svg>
